<svg width="228" height="66" viewBox="0 0 228 66" fill="none" xmlns="http://www.w3.org/2000/svg">
<path d="M46.7745 50.064C45.8358 50.064 45.0465 49.7653 44.4065 49.168C43.8092 48.528 43.5105 47.7387 43.5105 46.8V28.496C43.5105 25.808 42.8492 23.824 41.5265 22.544C40.2038 21.2213 38.4758 20.56 36.3425 20.56C34.1238 20.56 32.2892 21.328 30.8385 22.864C29.4305 24.4 28.7265 26.3627 28.7265 28.752H23.4145C23.4145 25.9787 24.0118 23.5467 25.2065 21.456C26.4012 19.3227 28.0652 17.6587 30.1985 16.464C32.3745 15.2693 34.8492 14.672 37.6225 14.672C40.0545 14.672 42.2092 15.2053 44.0865 16.272C45.9638 17.3387 47.4145 18.9173 48.4385 21.008C49.5052 23.056 50.0385 25.552 50.0385 28.496V46.8C50.0385 47.7387 49.7398 48.528 49.1425 49.168C48.5452 49.7653 47.7558 50.064 46.7745 50.064ZM4.0865 50.064C3.14783 50.064 2.3585 49.7653 1.7185 49.168C1.12117 48.528 0.8225 47.7387 0.8225 46.8V18.32C0.8225 17.3387 1.12117 16.5493 1.7185 15.952C2.3585 15.3547 3.14783 15.056 4.0865 15.056C5.06783 15.056 5.85717 15.3547 6.4545 15.952C7.05183 16.5493 7.3505 17.3387 7.3505 18.32V46.8C7.3505 47.7387 7.05183 48.528 6.4545 49.168C5.85717 49.7653 5.06783 50.064 4.0865 50.064ZM25.4625 50.064C24.5238 50.064 23.7345 49.7653 23.0945 49.168C22.4972 48.528 22.1985 47.7387 22.1985 46.8V28.496C22.1985 25.808 21.5372 23.824 20.2145 22.544C18.8918 21.2213 17.1638 20.56 15.0305 20.56C12.8118 20.56 10.9772 21.328 9.5265 22.864C8.07583 24.4 7.3505 26.3627 7.3505 28.752H3.3185C3.3185 25.9787 3.87317 23.5467 4.9825 21.456C6.09183 19.3227 7.62783 17.6587 9.5905 16.464C11.5532 15.2693 13.7932 14.672 16.3105 14.672C18.7425 14.672 20.8972 15.2053 22.7745 16.272C24.6518 17.3387 26.1025 18.9173 27.1265 21.008C28.1932 23.056 28.7265 25.552 28.7265 28.496V46.8C28.7265 47.7387 28.4278 48.528 27.8305 49.168C27.2332 49.7653 26.4438 50.064 25.4625 50.064ZM67.157 65.36C66.7303 65.36 66.2183 65.232 65.621 64.976C63.7437 64.1227 63.2317 62.7787 64.085 60.944L83.605 16.848C84.4583 15.056 85.8023 14.544 87.637 15.312C89.557 16.1227 90.0903 17.4667 89.237 19.344L69.653 63.376C69.141 64.6987 68.309 65.36 67.157 65.36ZM74.709 48.592C73.8983 48.9333 73.1303 48.976 72.405 48.72C71.7223 48.4213 71.1677 47.8667 70.741 47.056L56.085 19.216C55.6583 18.4053 55.5943 17.6373 55.893 16.912C56.2343 16.144 56.8103 15.5893 57.621 15.248C58.4317 14.9067 59.1997 14.8853 59.925 15.184C60.6503 15.44 61.205 15.9733 61.589 16.784L75.605 44.624C76.0317 45.4347 76.181 46.224 76.053 46.992C75.9677 47.7173 75.5197 48.2507 74.709 48.592Z" fill="#057A47"/>
<path d="M105.059 50C104.12 50 103.331 49.68 102.691 49.04C102.051 48.4 101.731 47.6107 101.731 46.672V0.0159988H108.387V46.672C108.387 47.6107 108.067 48.4 107.427 49.04C106.787 49.68 105.998 50 105.059 50ZM87.907 6.16C87.011 6.16 86.2643 5.88266 85.667 5.328C85.1123 4.73067 84.835 3.984 84.835 3.088C84.835 2.192 85.1123 1.46667 85.667 0.911999C86.2643 0.314665 87.011 0.0159988 87.907 0.0159988H122.147C123.043 0.0159988 123.768 0.314665 124.323 0.911999C124.92 1.46667 125.219 2.192 125.219 3.088C125.219 3.984 124.92 4.73067 124.323 5.328C123.768 5.88266 123.043 6.16 122.147 6.16H87.907ZM136.915 50.256C133.8 50.256 131.005 49.488 128.531 47.952C126.056 46.3733 124.093 44.2613 122.643 41.616C121.235 38.928 120.531 35.8987 120.531 32.528C120.531 29.1573 121.299 26.128 122.835 23.44C124.413 20.752 126.525 18.64 129.171 17.104C131.859 15.5253 134.867 14.736 138.195 14.736C141.523 14.736 144.509 15.5253 147.155 17.104C149.8 18.64 151.891 20.752 153.427 23.44C155.005 26.128 155.795 29.1573 155.795 32.528H153.299C153.299 35.8987 152.573 38.928 151.123 41.616C149.715 44.2613 147.773 46.3733 145.299 47.952C142.824 49.488 140.029 50.256 136.915 50.256ZM138.195 44.496C140.371 44.496 142.312 43.984 144.019 42.96C145.725 41.8933 147.069 40.464 148.051 38.672C149.032 36.8373 149.523 34.7893 149.523 32.528C149.523 30.224 149.032 28.176 148.051 26.384C147.069 24.5493 145.725 23.12 144.019 22.096C142.312 21.0293 140.371 20.496 138.195 20.496C136.061 20.496 134.12 21.0293 132.371 22.096C130.664 23.12 129.299 24.5493 128.275 26.384C127.293 28.176 126.803 30.224 126.803 32.528C126.803 34.7893 127.293 36.8373 128.275 38.672C129.299 40.464 130.664 41.8933 132.371 42.96C134.12 43.984 136.061 44.496 138.195 44.496ZM152.531 50.064C151.592 50.064 150.803 49.7653 150.163 49.168C149.565 48.528 149.267 47.7387 149.267 46.8V37.008L150.483 30.224L155.795 32.528V46.8C155.795 47.7387 155.475 48.528 154.835 49.168C154.237 49.7653 153.469 50.064 152.531 50.064ZM178.246 50.256C175.259 50.256 172.486 49.808 169.926 48.912C167.409 47.9733 165.446 46.8 164.038 45.392C163.398 44.7093 163.121 43.9413 163.206 43.088C163.334 42.192 163.761 41.4667 164.486 40.912C165.339 40.2293 166.171 39.952 166.982 40.08C167.835 40.1653 168.561 40.528 169.158 41.168C169.883 41.9787 171.035 42.7467 172.614 43.472C174.235 44.1547 176.027 44.496 177.99 44.496C180.465 44.496 182.342 44.0907 183.622 43.28C184.945 42.4693 185.627 41.424 185.67 40.144C185.713 38.864 185.094 37.7547 183.814 36.816C182.577 35.8773 180.294 35.1093 176.966 34.512C172.657 33.6587 169.521 32.3787 167.558 30.672C165.638 28.9653 164.678 26.8747 164.678 24.4C164.678 22.224 165.318 20.432 166.598 19.024C167.878 17.5733 169.521 16.5067 171.526 15.824C173.531 15.0987 175.622 14.736 177.798 14.736C180.614 14.736 183.11 15.184 185.286 16.08C187.462 16.976 189.19 18.2133 190.47 19.792C191.067 20.4747 191.345 21.2 191.302 21.968C191.259 22.6933 190.897 23.312 190.214 23.824C189.531 24.2933 188.721 24.4427 187.782 24.272C186.843 24.1013 186.054 23.7173 185.414 23.12C184.347 22.096 183.195 21.392 181.958 21.008C180.721 20.624 179.291 20.432 177.67 20.432C175.793 20.432 174.193 20.752 172.87 21.392C171.59 22.032 170.95 22.9707 170.95 24.208C170.95 24.976 171.142 25.68 171.526 26.32C171.953 26.9173 172.763 27.472 173.958 27.984C175.153 28.4533 176.902 28.9227 179.206 29.392C182.406 30.032 184.923 30.8427 186.758 31.824C188.635 32.8053 189.979 33.9573 190.79 35.28C191.601 36.56 192.006 38.0533 192.006 39.76C192.006 41.7227 191.473 43.4933 190.406 45.072C189.382 46.6507 187.846 47.9093 185.798 48.848C183.793 49.7867 181.275 50.256 178.246 50.256ZM206.404 37.2L202.436 32.848L222.084 15.312C222.724 14.7147 223.428 14.4373 224.196 14.48C225.007 14.5227 225.689 14.864 226.244 15.504C226.841 16.144 227.119 16.848 227.076 17.616C227.033 18.384 226.692 19.0667 226.052 19.664L206.404 37.2ZM203.396 50C202.457 50 201.689 49.7227 201.092 49.168C200.537 48.5707 200.26 47.8027 200.26 46.864V3.152C200.26 2.21333 200.537 1.46667 201.092 0.911999C201.689 0.314665 202.457 0.0159988 203.396 0.0159988C204.335 0.0159988 205.081 0.314665 205.636 0.911999C206.233 1.46667 206.532 2.21333 206.532 3.152V46.864C206.532 47.8027 206.233 48.5707 205.636 49.168C205.081 49.7227 204.335 50 203.396 50ZM226.244 49.68C225.561 50.2347 224.793 50.4693 223.94 50.384C223.129 50.3413 222.447 49.9787 221.892 49.296L208.9 33.232L213.38 29.008L226.692 45.392C227.247 46.0747 227.481 46.8213 227.396 47.632C227.353 48.4 226.969 49.0827 226.244 49.68Z" fill="white"/>
</svg>
